<?xml version="1.0" encoding="utf-8"?>
<!-- Generator: Adobe Illustrator 22.1.0, SVG Export Plug-In . SVG Version: 6.00 Build 0)  -->
<svg version="1.1" id="Layer_1" xmlns="http://www.w3.org/2000/svg" xmlns:xlink="http://www.w3.org/1999/xlink" x="0px" y="0px"
	 viewBox="0 0 21.6 21.6" style="enable-background:new 0 0 21.6 21.6;" xml:space="preserve">
<style type="text/css">
	.st0{display:none;}
	.st1{display:inline;fill:none;}
	.st2{display:inline;}
	.st3{enable-background:new    ;}
	.st4{display:inline;fill:none;stroke:#000000;stroke-width:2;stroke-miterlimit:10;}
	.st5{display:inline;fill:#FFFFFF;stroke:#000000;stroke-width:2;stroke-miterlimit:10;}
	.st6{display:inline;fill:none;stroke:#000000;stroke-miterlimit:10;}
	.st7{display:none;fill:#FFFFFF;stroke:#000000;stroke-miterlimit:10;}
	.st8{fill:#FFFFFF;stroke:#000000;stroke-miterlimit:10;}
	.st9{fill:#FFFFFF;stroke:#000000;stroke-width:1.5;stroke-miterlimit:10;}
</style>
<g id="Layer_1_1_" class="st0">
</g>
<g id="Layer_2_1_" class="st0">
	<rect x="-2001.9" y="-530.9" class="st1" width="430.6" height="466.9"/>
	<text transform="matrix(1 0 0 1 -2001.8922 -513.8542)" class="st2" style="font-family:'ArialMT'; font-size:24px;">NOTES</text>
	
		<text transform="matrix(1 0 0 1 -2001.8922 -485.0541)" class="st2" style="font-family:'ArialMT'; font-size:24px; letter-spacing:30;"> </text>
	<text transform="matrix(1 0 0 1 -1965.8922 -485.0541)" class="st2" style="font-family:'ArialMT'; font-size:24px;">currency: coin that asks you to suggest </text>
	<text transform="matrix(1 0 0 1 -2001.8922 -456.2542)" class="st2" style="font-family:'ArialMT'; font-size:24px;">a song and then gets in the machine and </text>
	<text transform="matrix(1 0 0 1 -2001.8922 -427.4542)" class="st2" style="font-family:'ArialMT'; font-size:24px;">allows you to play.</text>
	
		<text transform="matrix(1 0 0 1 -2001.8922 -398.6541)" class="st2" style="font-family:'ArialMT'; font-size:24px; letter-spacing:30;"> </text>
	<text transform="matrix(1 0 0 1 -1965.8922 -398.6541)" class="st2" style="font-family:'ArialMT'; font-size:24px;">songs in the listing and yt video will </text>
	<text transform="matrix(1 0 0 1 -2001.8922 -369.8542)" class="st2" style="font-family:'ArialMT'; font-size:24px;">appear after cd animation on the side and </text>
	<text transform="matrix(1 0 0 1 -2001.8922 -341.0541)" class="st2" style="font-family:'ArialMT'; font-size:24px;">fade after it plays</text>
	
		<text transform="matrix(1 0 0 1 -2001.8922 -312.2541)" class="st2" style="font-family:'ArialMT'; font-size:24px; letter-spacing:30;"> </text>
	<text transform="matrix(1 0 0 1 -1965.8922 -312.2541)" class="st2" style="font-family:'ArialMT'; font-size:24px;">add sfx later on?</text>
	
		<text transform="matrix(1 0 0 1 -2001.8922 -283.4542)" class="st2" style="font-family:'ArialMT'; font-size:24px; letter-spacing:30;"> </text>
	<text transform="matrix(1 0 0 1 -1965.8922 -283.4542)" class="st2" style="font-family:'ArialMT'; font-size:24px;">name and artist of each song. If OST </text>
	<text transform="matrix(1 0 0 1 -2001.8922 -254.6541)" class="st2" style="font-family:'ArialMT'; font-size:24px;">just (name) OST</text>
	
		<text transform="matrix(1 0 0 1 -2001.8922 -225.8541)" class="st2" style="font-family:'ArialMT'; font-size:24px; letter-spacing:30;"> </text>
	<text transform="matrix(1 0 0 1 -1965.8922 -225.8541)" class="st2" style="font-family:'ArialMT'; font-size:24px;">add that smol dialogue. theme: me </text>
	<text transform="matrix(1 0 0 1 -2001.8922 -197.0541)" class="st2" style="font-family:'ArialMT'; font-size:24px;">being bad at hearing and how im too self </text>
	<text transform="matrix(1 0 0 1 -2001.8922 -168.2542)" class="st2" style="font-family:'ArialMT'; font-size:24px;">aware and starting to be mindful abt these </text>
	<text transform="matrix(1 0 0 1 -2001.8922 -139.4542)" class="st2" style="font-family:'ArialMT'; font-size:24px;">things bc that’s what cultured otaku do (im </text>
	<text transform="matrix(1 0 0 1 -2001.8922 -110.6541)" class="st2" style="font-family:'ArialMT'; font-size:24px;">pathetic)/but honestly i just like their beat </text>
	<text transform="matrix(1 0 0 1 -2001.8922 -81.8541)" class="st2" style="font-family:'ArialMT'; font-size:24px;">and lyrics</text>
	<path class="st4" d="M-1485.3,704c0-128,2.1-214,2.1-303.6c0-13.4,1.1-22.4,1.9-33.4c35-528,724-473,741-1
		c0.4,10.1,0.8,20,0.8,30.4c0,94.6-3.8,188.6-3.8,307.6H-1485.3z"/>
	<path class="st4" d="M-1439.3,704c0-119.6,1.8-200,1.8-283.7c0-12.5,1-20.9,1.6-31.2c30.1-493.4,623.4-442,638.1-0.9
		c0.3,9.5,0.7,18.7,0.7,28.4c0,88.4-3.3,176.2-3.3,287.4H-1439.3z"/>
	<path class="st4" d="M-1386.3,704c0-109.9,1.5-183.7,1.5-260.7c0-11.5,2.1-19.2,1.3-28.7C-1420.3-32-808.3,3-855.9,413.8
		c-1,8.6,0.6,17.2,0.6,26.1c0,81.2-2.7,161.9-2.7,264.1H-1386.3z"/>
	<path class="st4" d="M-1372.3,704c0-104.3,1.4-174.4,1.4-247.4c0-10.9,2.1-18.3,1.3-27.2C-1413.3-9-823.3-2-869.8,428.5
		c-0.9,8.2,0.5,16.3,0.5,24.8c0,77.1-2.6,153.7-2.6,250.7H-1372.3z"/>
	<path class="st4" d="M-886.3,350c0.6,6.6-5.4,12-12,12h-446c-6.6,0-12.4-5.4-12-12C-1338.3,59-912.3,40-886.3,350z"/>
	<rect x="-664.3" y="-10" class="st4" width="560" height="315"/>
	<rect x="-231.5" y="367" class="st1" width="93.9" height="310.6"/>
	<text transform="matrix(0 -1 1 0 -214.4404 677.5179)" class="st2" style="font-family:'ArialMT'; font-size:24px;">place notes like this</text>
	<text transform="matrix(0 -1 1 0 -185.6403 677.5179)" class="st2" style="font-family:'ArialMT'; font-size:24px;">just to fuck with them, aight?</text>
	<rect x="-1181.1" y="549.1" class="st1" width="126.8" height="15.9"/>
	<text transform="matrix(1 0 0 1 -1181.0979 559.1033)" class="st2" style="font-family:'Helvetica'; font-size:14px;">cce’s favorite songs</text>
	<rect x="-1311.1" y="537.1" class="st1" width="13.8" height="6.9"/>
	<text transform="matrix(1 0 0 1 -1311.0979 541.3514)" class="st2" style="font-family:'Helvetica'; font-size:6px;">25¢</text>
	<rect x="-1292.1" y="537.1" class="st1" width="13.8" height="6.9"/>
	<text transform="matrix(1 0 0 1 -1292.0979 541.3514)" class="st2" style="font-family:'Helvetica'; font-size:6px;">10¢</text>
	<rect x="-1271.1" y="537.1" class="st1" width="13.8" height="6.9"/>
	<text transform="matrix(1 0 0 1 -1271.0979 541.3514)" class="st2" style="font-family:'Helvetica'; font-size:6px;">5¢</text>
</g>
<g id="Layer_3" class="st0">
	<path class="st5" d="M-1362.3,365v24l-115,2c0,0-6,1-6,5c0,0-5-5-12-9s-7-11,0-13s10-7,10-7L-1362.3,365z"/>
	<path class="st5" d="M-1362.3,411v24l-115,2c0,0-6,1-6,5c0,0-5-5-12-9s-7-11,0-13s10-7,10-7L-1362.3,411z"/>
	<path class="st5" d="M-1362.3,457v24l-117.3,2c0,0-6.1,1-6.1,5c0,0-5.1-5-12.2-9c-7.1-4-7.1-11,0-13c7.1-2,10.2-7,10.2-7
		L-1362.3,457z"/>
	<path class="st5" d="M-880.3,365v24l133.8,2c0,0,7,1,7,5c0,0,5.8-5,14-9s8.1-11,0-13s-11.6-7-11.6-7L-880.3,365z"/>
	<path class="st5" d="M-880.3,411v24l133.8,2c0,0,7,1,7,5c0,0,5.8-5,14-9s8.1-11,0-13s-11.6-7-11.6-7L-880.3,411z"/>
	<path class="st5" d="M-880.3,457v24l133.9,2c0,0,7,1,7,5c0,0,5.8-5,14-9s8.2-11,0-13s-11.6-7-11.6-7L-880.3,457z"/>
	<path class="st4" d="M-905.3,704v-67c0-6.6-5.4-12-12-12h-408c-6.6,0-12,5.4-12,12v67H-905.3z"/>
	<path class="st4" d="M-1255.3,525h-67c-6.6,0-11,5-12,7v53c0,1,5.4,5,12,5h67V525z"/>
	<path class="st4" d="M-992.3,525h67c6.6,0,11,5,12,7v53c0,1-5.4,5-12,5h-67V525z"/>
	<path class="st4" d="M-992.3,625V521.5c0-10.2-10-18.5-14-18.5h-236c-4,0-13,8.3-13,18.5V625H-992.3z"/>
	<path class="st4" d="M-1049.3,576h-148c-6.6,0-12-5.4-12-12v-15c0-6.6,5.4-12,12-12h148c6.6,0,12,5.4,12,12v15
		C-1037.3,570.6-1042.7,576-1049.3,576z"/>
	<path class="st4" d="M-932.3,576h-30c-6.6,0-12-5.4-12-12v-15c0-6.6,5.4-12,12-12h30c6.6,0,12,5.4,12,12v15
		C-920.3,570.6-925.7,576-932.3,576z"/>
	<rect x="-1312.3" y="532" class="st6" width="13" height="17"/>
	<rect x="-1293.3" y="532" class="st6" width="13" height="17"/>
	<rect x="-1274.3" y="532" class="st6" width="13" height="17"/>
	<rect x="-1308.8" y="553.5" class="st6" width="5" height="23"/>
	<rect x="-1289.8" y="553.5" class="st6" width="5" height="18"/>
	<rect x="-1270.8" y="553.5" class="st6" width="5" height="20"/>
	<path class="st4" d="M-1306.3,365h-23.7c-2.3,0-3.9,8.9-4.3,12.5v94.6c0,1.8,1.9,8.9,4.3,8.9h23.7V365z"/>
	<path class="st4" d="M-1227.3,365h-23.7c-2.3,0-3.9,8.9-4.3,12.5v94.6c0,1.8,1.9,8.9,4.3,8.9h23.7V365z"/>
	<path class="st4" d="M-1020.3,365h23.7c2.3,0,3.9,8.9,4.3,12.5v94.6c0,1.8-1.9,8.9-4.3,8.9h-23.7V365z"/>
	<path class="st4" d="M-941.3,365h23.7c2.3,0,3.9,8.9,4.3,12.5v94.6c0,1.8-1.9,8.9-4.3,8.9h-23.7V365z"/>
	<path class="st4" d="M-992.3,704v-45.8c0-4.5-10-8.2-14-8.2h-236c-4,0-13,3.7-13,8.2V704H-992.3z"/>
	<polygon class="st4" points="-1188.8,650.3 -1142.5,650.3 -1165.7,690.4 	"/>
	<polygon class="st4" points="-1107.8,650.3 -1061.5,650.3 -1084.7,690.4 	"/>
	<path class="st4" d="M-1242.5,650.4l24-0.1l-23.2,40.1l-12-20.7C-1258.6,661.2-1252.4,650.4-1242.5,650.4z"/>
	<path class="st4" d="M-1005.4,650.5l-22-0.1c-0.7,0-1.1,0.7-0.7,1.3l22.4,38.8l11.7-20.2C-989,661.5-995.3,650.5-1005.4,650.5z"/>
	<polygon class="st4" points="-1172.3,704 -1159.3,704 -1165.7,693.2 	"/>
	<polygon class="st4" points="-1248.3,704 -1235.3,704 -1241.7,693.2 	"/>
	<polygon class="st4" points="-1091.3,704 -1078.3,704 -1084.7,693.2 	"/>
	<polygon class="st4" points="-1012.3,704 -999.3,704 -1005.7,693.2 	"/>
</g>
<g id="Layer_4">
	<circle class="st7" cx="-927.8" cy="467.5" r="5"/>
	<circle class="st7" cx="-927.8" cy="449.5" r="5"/>
	<circle class="st7" cx="-927.8" cy="431.5" r="5"/>
	<circle class="st7" cx="-927.8" cy="377.5" r="5"/>
	<circle class="st7" cx="-927.8" cy="395.5" r="5"/>
	<circle class="st7" cx="-927.8" cy="413.5" r="5"/>
	<circle class="st7" cx="-1319.8" cy="377.5" r="5"/>
	<circle class="st7" cx="-1319.8" cy="395.5" r="5"/>
	<circle class="st7" cx="-1319.8" cy="413.5" r="5"/>
	<circle class="st7" cx="-1319.8" cy="431.5" r="5"/>
	<circle class="st7" cx="-1319.8" cy="449.5" r="5"/>
	<circle class="st7" cx="-1319.8" cy="467.5" r="5"/>
	<circle class="st7" cx="-1240.8" cy="377.5" r="5"/>
	<circle class="st7" cx="-1240.8" cy="395.5" r="5"/>
	<circle class="st7" cx="-1240.8" cy="413.5" r="5"/>
	<circle class="st7" cx="-1240.8" cy="431.5" r="5"/>
	<circle class="st7" cx="-1240.8" cy="449.5" r="5"/>
	<circle class="st7" cx="-1240.8" cy="467.5" r="5"/>
	<circle class="st7" cx="-1006.8" cy="377.5" r="5"/>
	<circle class="st7" cx="-1006.8" cy="395.5" r="5"/>
	<circle class="st7" cx="-1006.8" cy="413.5" r="5"/>
	<circle class="st7" cx="-1006.8" cy="431.5" r="5"/>
	<circle class="st7" cx="-1006.8" cy="449.5" r="5"/>
	<circle class="st7" cx="-1006.8" cy="467.5" r="5"/>
	<circle class="st8" cx="-1324.8" cy="551.5" r="5"/>
</g>
<g id="Layer_4_1_">
	<circle class="st7" cx="406.8" cy="-70.6" r="5"/>
	<circle class="st7" cx="406.8" cy="-88.6" r="5"/>
	<circle class="st7" cx="406.8" cy="-106.6" r="5"/>
	<circle class="st7" cx="406.8" cy="-160.6" r="5"/>
	<circle class="st7" cx="406.8" cy="-142.6" r="5"/>
	<circle class="st7" cx="406.8" cy="-124.6" r="5"/>
	<circle class="st7" cx="14.8" cy="-160.6" r="5"/>
	<circle class="st7" cx="14.8" cy="-142.6" r="5"/>
	<circle class="st7" cx="14.8" cy="-124.6" r="5"/>
	<circle class="st7" cx="14.8" cy="-106.6" r="5"/>
	<circle class="st7" cx="14.8" cy="-88.6" r="5"/>
	<circle class="st7" cx="14.8" cy="-70.6" r="5"/>
	<circle class="st7" cx="93.8" cy="-160.6" r="5"/>
	<circle class="st7" cx="93.8" cy="-142.6" r="5"/>
	<circle class="st7" cx="93.8" cy="-124.6" r="5"/>
	<circle class="st7" cx="93.8" cy="-106.6" r="5"/>
	<circle class="st7" cx="93.8" cy="-88.6" r="5"/>
	<circle class="st7" cx="93.8" cy="-70.6" r="5"/>
	<circle class="st7" cx="327.8" cy="-160.6" r="5"/>
	<circle class="st7" cx="327.8" cy="-142.6" r="5"/>
	<circle class="st7" cx="327.8" cy="-124.6" r="5"/>
	<circle class="st7" cx="327.8" cy="-106.6" r="5"/>
	<circle class="st7" cx="327.8" cy="-88.6" r="5"/>
	<circle class="st7" cx="327.8" cy="-70.6" r="5"/>
</g>
<circle class="st9" cx="10.8" cy="10.8" r="9.7"/>
</svg>
