<?xml version="1.0" encoding="utf-8"?>
<!-- Generator: Adobe Illustrator 22.1.0, SVG Export Plug-In . SVG Version: 6.00 Build 0)  -->
<svg version="1.1" id="Layer_1" xmlns="http://www.w3.org/2000/svg" xmlns:xlink="http://www.w3.org/1999/xlink" x="0px" y="0px"
	 viewBox="0 0 478.3 246.3" style="enable-background:new 0 0 478.3 246.3;" xml:space="preserve">
<style type="text/css">
	.st0{display:none;}
	.st1{fill:none;}
	.st2{enable-background:new    ;}
	.st3{fill:none;stroke:#000000;stroke-width:2;stroke-miterlimit:10;}
	.st4{display:none;fill:none;stroke:#000000;stroke-width:2;stroke-miterlimit:10;}
	.st5{fill:#FFFFFF;stroke:#000000;stroke-width:2;stroke-miterlimit:10;}
	.st6{fill:none;stroke:#000000;stroke-miterlimit:10;}
	.st7{stroke:#000000;stroke-miterlimit:10;}
</style>
<g id="Layer_1_1_" class="st0">
</g>
<rect x="-1936.2" y="-466.9" class="st1" width="430.6" height="466.9"/>
<text transform="matrix(1 0 0 1 -1936.2192 -449.8232)" style="font-family:'ArialMT'; font-size:24px;">NOTES</text>
<text transform="matrix(1 0 0 1 -1936.2192 -421.0232)" style="font-family:'ArialMT'; font-size:24px; letter-spacing:30;"> </text>
<text transform="matrix(1 0 0 1 -1900.2192 -421.0232)" style="font-family:'ArialMT'; font-size:24px;">currency: coin that asks you to suggest </text>
<text transform="matrix(1 0 0 1 -1936.2192 -392.2233)" style="font-family:'ArialMT'; font-size:24px;">a song and then gets in the machine and </text>
<text transform="matrix(1 0 0 1 -1936.2192 -363.4232)" style="font-family:'ArialMT'; font-size:24px;">allows you to play.</text>
<text transform="matrix(1 0 0 1 -1936.2192 -334.6232)" style="font-family:'ArialMT'; font-size:24px; letter-spacing:30;"> </text>
<text transform="matrix(1 0 0 1 -1900.2192 -334.6232)" style="font-family:'ArialMT'; font-size:24px;">songs in the listing and yt video will </text>
<text transform="matrix(1 0 0 1 -1936.2192 -305.8232)" style="font-family:'ArialMT'; font-size:24px;">appear after cd animation on the side and </text>
<text transform="matrix(1 0 0 1 -1936.2192 -277.0232)" style="font-family:'ArialMT'; font-size:24px;">fade after it plays</text>
<text transform="matrix(1 0 0 1 -1936.2192 -248.2231)" style="font-family:'ArialMT'; font-size:24px; letter-spacing:30;"> </text>
<text transform="matrix(1 0 0 1 -1900.2192 -248.2231)" style="font-family:'ArialMT'; font-size:24px;">add sfx later on?</text>
<text transform="matrix(1 0 0 1 -1936.2192 -219.4232)" style="font-family:'ArialMT'; font-size:24px; letter-spacing:30;"> </text>
<text transform="matrix(1 0 0 1 -1900.2192 -219.4232)" style="font-family:'ArialMT'; font-size:24px;">name and artist of each song. If OST </text>
<text transform="matrix(1 0 0 1 -1936.2192 -190.6232)" style="font-family:'ArialMT'; font-size:24px;">just (name) OST</text>
<text transform="matrix(1 0 0 1 -1936.2192 -161.8232)" style="font-family:'ArialMT'; font-size:24px; letter-spacing:30;"> </text>
<text transform="matrix(1 0 0 1 -1900.2192 -161.8232)" style="font-family:'ArialMT'; font-size:24px;">add that smol dialogue. theme: me </text>
<text transform="matrix(1 0 0 1 -1936.2192 -133.0232)" style="font-family:'ArialMT'; font-size:24px;">being bad at hearing and how im too self </text>
<text transform="matrix(1 0 0 1 -1936.2192 -104.2232)" style="font-family:'ArialMT'; font-size:24px;">aware and starting to be mindful abt these </text>
<text transform="matrix(1 0 0 1 -1936.2192 -75.4232)" style="font-family:'ArialMT'; font-size:24px;">things bc that’s what cultured otaku do (im </text>
<text transform="matrix(1 0 0 1 -1936.2192 -46.6232)" style="font-family:'ArialMT'; font-size:24px;">pathetic)/but honestly i just like their beat </text>
<text transform="matrix(1 0 0 1 -1936.2192 -17.8232)" style="font-family:'ArialMT'; font-size:24px;">and lyrics</text>
<path class="st3" d="M-1419.6,768c0-128,2.1-214,2.1-303.6c0-13.4,1.1-22.4,1.9-33.4c35-528,724-473,741-1c0.4,10.1,0.8,20,0.8,30.4
	c0,94.6-3.8,188.6-3.8,307.6H-1419.6z"/>
<path class="st3" d="M-1373.6,768c0-119.6,1.8-200,1.8-283.7c0-12.5,1-20.9,1.6-31.2c30.1-493.4,623.4-442,638.1-0.9
	c0.3,9.5,0.7,18.7,0.7,28.4c0,88.4-3.3,176.2-3.3,287.4H-1373.6z"/>
<path class="st3" d="M-1320.6,768c0-109.9,1.5-183.7,1.5-260.7c0-11.5,2.1-19.2,1.3-28.7C-1354.6,32-742.6,67-790.2,477.8
	c-1,8.6,0.6,17.2,0.6,26.1c0,81.2-2.7,161.9-2.7,264.1H-1320.6z"/>
<path class="st3" d="M-1306.6,768c0-104.3,1.4-174.4,1.4-247.4c0-10.9,2.1-18.3,1.3-27.2C-1347.6,55-757.6,62-804.1,492.5
	c-0.9,8.2,0.5,16.3,0.5,24.8c0,77.1-2.6,153.7-2.6,250.7H-1306.6z"/>
<path class="st3" d="M-820.6,414c0.6,6.6-5.4,12-12,12h-446c-6.6,0-12.4-5.4-12-12C-1272.6,123-846.6,104-820.6,414z"/>
<rect x="-598.6" y="54" class="st4" width="560" height="315"/>
<rect x="-165.8" y="431" class="st1" width="93.9" height="310.6"/>
<rect x="-1115.4" y="613.1" class="st1" width="126.8" height="15.9"/>
<text transform="matrix(1 0 0 1 -1115.4248 623.1343)" style="font-family:'Helvetica'; font-size:14px;">cce’s favorite songs</text>
<rect x="-1245.4" y="601.1" class="st1" width="13.8" height="6.9"/>
<text transform="matrix(1 0 0 1 -1245.4248 605.3823)" style="font-family:'Helvetica'; font-size:6px;">25¢</text>
<rect x="-1226.4" y="601.1" class="st1" width="13.8" height="6.9"/>
<text transform="matrix(1 0 0 1 -1226.4248 605.3823)" style="font-family:'Helvetica'; font-size:6px;">10¢</text>
<rect x="-1205.4" y="601.1" class="st1" width="13.8" height="6.9"/>
<text transform="matrix(1 0 0 1 -1205.4248 605.3823)" style="font-family:'Helvetica'; font-size:6px;">5¢</text>
<g id="Layer_3">
	<path class="st5" d="M-1296.6,429v24l-115,2c0,0-6,1-6,5c0,0-5-5-12-9s-7-11,0-13s10-7,10-7L-1296.6,429z"/>
	<path class="st5" d="M-1296.6,475v24l-115,2c0,0-6,1-6,5c0,0-5-5-12-9s-7-11,0-13s10-7,10-7L-1296.6,475z"/>
	<path class="st5" d="M-1296.6,521v24l-117.3,2c0,0-6.1,1-6.1,5c0,0-5.1-5-12.2-9c-7.1-4-7.1-11,0-13c7.1-2,10.2-7,10.2-7
		L-1296.6,521z"/>
	<path class="st5" d="M-814.6,429v24l133.8,2c0,0,7,1,7,5c0,0,5.8-5,14-9s8.1-11,0-13s-11.6-7-11.6-7L-814.6,429z"/>
	<path class="st5" d="M-814.6,475v24l133.8,2c0,0,7,1,7,5c0,0,5.8-5,14-9s8.1-11,0-13s-11.6-7-11.6-7L-814.6,475z"/>
	<path class="st5" d="M-814.6,521v24l133.9,2c0,0,7,1,7,5c0,0,5.8-5,14-9s8.2-11,0-13s-11.6-7-11.6-7L-814.6,521z"/>
	<path class="st3" d="M-839.6,768v-67c0-6.6-5.4-12-12-12h-408c-6.6,0-12,5.4-12,12v67H-839.6z"/>
	<path class="st3" d="M-1189.6,589h-67c-6.6,0-11,5-12,7v53c0,1,5.4,5,12,5h67V589z"/>
	<path class="st3" d="M-926.6,589h67c6.6,0,11,5,12,7v53c0,1-5.4,5-12,5h-67V589z"/>
	<path class="st3" d="M-926.6,689V585.5c0-10.2-10-18.5-14-18.5h-236c-4,0-13,8.3-13,18.5V689H-926.6z"/>
	<path class="st3" d="M-983.6,640h-148c-6.6,0-12-5.4-12-12v-15c0-6.6,5.4-12,12-12h148c6.6,0,12,5.4,12,12v15
		C-971.6,634.6-977,640-983.6,640z"/>
	<path class="st3" d="M-866.6,640h-30c-6.6,0-12-5.4-12-12v-15c0-6.6,5.4-12,12-12h30c6.6,0,12,5.4,12,12v15
		C-854.6,634.6-860,640-866.6,640z"/>
	<rect x="-1246.6" y="596" class="st6" width="13" height="17"/>
	<rect x="-1227.6" y="596" class="st6" width="13" height="17"/>
	<rect x="-1208.6" y="596" class="st6" width="13" height="17"/>
	<rect x="-1243.1" y="617.5" class="st6" width="5" height="23"/>
	<rect x="-1224.1" y="617.5" class="st6" width="5" height="18"/>
	<rect x="-1205.1" y="617.5" class="st6" width="5" height="20"/>
	<path class="st3" d="M-1240.6,429h-23.7c-2.3,0-3.9,8.9-4.3,12.5v94.6c0,1.8,1.9,8.9,4.3,8.9h23.7V429z"/>
	<path class="st3" d="M-1161.6,429h-23.7c-2.3,0-3.9,8.9-4.3,12.5v94.6c0,1.8,1.9,8.9,4.3,8.9h23.7V429z"/>
	<path class="st3" d="M-954.6,429h23.7c2.3,0,3.9,8.9,4.3,12.5v94.6c0,1.8-1.9,8.9-4.3,8.9h-23.7V429z"/>
	<path class="st3" d="M-875.6,429h23.7c2.3,0,3.9,8.9,4.3,12.5v94.6c0,1.8-1.9,8.9-4.3,8.9h-23.7V429z"/>
	<path class="st3" d="M-926.6,768v-45.8c0-4.5-10-8.2-14-8.2h-236c-4,0-13,3.7-13,8.2V768H-926.6z"/>
	<polygon class="st3" points="-1123.1,714.3 -1076.8,714.3 -1100,754.4 	"/>
	<polygon class="st3" points="-1042.1,714.3 -995.8,714.3 -1019,754.4 	"/>
	<path class="st3" d="M-1176.8,714.4l24-0.1l-23.2,40.1l-12-20.7C-1192.9,725.2-1186.7,714.4-1176.8,714.4z"/>
	<path class="st3" d="M-939.7,714.5l-22-0.1c-0.7,0-1.1,0.7-0.7,1.3l22.4,38.8l11.7-20.2C-923.3,725.5-929.6,714.5-939.7,714.5z"/>
	<polygon class="st3" points="-1106.6,768 -1093.6,768 -1100,757.2 	"/>
	<polygon class="st3" points="-1182.6,768 -1169.6,768 -1176,757.2 	"/>
	<polygon class="st3" points="-1025.6,768 -1012.6,768 -1019,757.2 	"/>
	<polygon class="st3" points="-946.6,768 -933.6,768 -940,757.2 	"/>
</g>
<circle class="st6" cx="-862.1" cy="531.5" r="5"/>
<circle class="st6" cx="-862.1" cy="513.5" r="5"/>
<circle class="st6" cx="-862.1" cy="495.5" r="5"/>
<circle class="st6" cx="-862.1" cy="441.5" r="5"/>
<circle class="st6" cx="-862.1" cy="459.5" r="5"/>
<circle class="st6" cx="-862.1" cy="477.5" r="5"/>
<circle class="st6" cx="-1254.1" cy="441.5" r="5"/>
<circle class="st6" cx="-1254.1" cy="459.5" r="5"/>
<circle class="st6" cx="-1254.1" cy="477.5" r="5"/>
<circle class="st6" cx="-1254.1" cy="495.5" r="5"/>
<circle class="st6" cx="-1254.1" cy="513.5" r="5"/>
<circle class="st6" cx="-1254.1" cy="531.5" r="5"/>
<circle class="st6" cx="-1175.1" cy="441.5" r="5"/>
<circle class="st6" cx="-1175.1" cy="459.5" r="5"/>
<circle class="st6" cx="-1175.1" cy="477.5" r="5"/>
<circle class="st6" cx="-1175.1" cy="495.5" r="5"/>
<circle class="st6" cx="-1175.1" cy="513.5" r="5"/>
<circle class="st6" cx="-1175.1" cy="531.5" r="5"/>
<circle class="st6" cx="-941.1" cy="441.5" r="5"/>
<circle class="st6" cx="-941.1" cy="459.5" r="5"/>
<circle class="st6" cx="-941.1" cy="477.5" r="5"/>
<circle class="st6" cx="-941.1" cy="495.5" r="5"/>
<circle class="st6" cx="-941.1" cy="513.5" r="5"/>
<circle class="st6" cx="-941.1" cy="531.5" r="5"/>
<circle class="st6" cx="-1259.1" cy="615.5" r="5"/>
<path class="st3" d="M-1083.8,429h-23.7c-2.3,0-3.9,8.9-4.3,12.5v94.6c0,1.8,1.9,8.9,4.3,8.9h23.7V429z"/>
<path class="st3" d="M-1033.3,429h23.7c2.3,0,3.9,8.9,4.3,12.5v94.6c0,1.8-1.9,8.9-4.3,8.9h-23.7V429z"/>
<circle class="st6" cx="-1020.1" cy="441.5" r="5"/>
<circle class="st6" cx="-1020.1" cy="459.5" r="5"/>
<circle class="st6" cx="-1020.1" cy="477.5" r="5"/>
<circle class="st6" cx="-1020.1" cy="495.5" r="5"/>
<circle class="st6" cx="-1020.1" cy="513.5" r="5"/>
<circle class="st6" cx="-1020.1" cy="531.5" r="5"/>
<circle class="st6" cx="-1098.1" cy="441.5" r="5"/>
<circle class="st6" cx="-1098.1" cy="459.5" r="5"/>
<circle class="st6" cx="-1098.1" cy="477.5" r="5"/>
<circle class="st6" cx="-1098.1" cy="495.5" r="5"/>
<circle class="st6" cx="-1098.1" cy="513.5" r="5"/>
<circle class="st6" cx="-1098.1" cy="531.5" r="5"/>
<path class="st7" d="M474.1,229.9c0.6,6.6-5.4,12-12,12h-446c-6.6,0-12.4-5.4-12-12C22.1-61.1,448.1-80.1,474.1,229.9z"/>
</svg>
